<svg xmlns="http://www.w3.org/2000/svg" viewBox="0 0 330.75 248.49">
  <g id="Layer_2" data-name="Layer 2">
    <g id="Layer_1-2" data-name="Layer 1">
      <g id="_7LtIrO" data-name="7LtIrO">
        <g>
          <path d="M279.91,97.23c-10.42-1-20.83-2.08-31.27-2.88a52.81,52.81,0,0,0-17.47,1.22c-10.25,2.69-20.64,4.9-30.85,7.76-8.32,2.33-16.52,5.17-24.67,8.06-12.42,4.4-24.78,9-37.11,13.61-11,4.14-21.85,8.67-32.06,14.55a87.51,87.51,0,0,0-12.36,8.12C87.54,153.12,85,160.59,85,169c0,1,0,2.09,0,3.13a5.62,5.62,0,0,0,.16,1c2.39.18,4.86.22,7.27.59,7.09,1.06,14.18,2.16,21.22,3.51A4.35,4.35,0,0,1,116.3,180a46.07,46.07,0,0,1,1,8.77c.12,3.17.66,6.67-.45,9.45a11.84,11.84,0,0,1-6.14,5.86c-4.25,1.69-8.94,2.3-13.46,3.25-2.9.62-5.83,1-9.11,1.63a9,9,0,0,0,1.56,2.19c4,2.93,8,5.92,12.2,8.58,3.88,2.46,7.95,4.61,12,6.74,5.26,2.76,11,3.54,16.88,4a51.1,51.1,0,0,0,7.42.2c1.78-.12,2.79.8,2.84,2.11a3.59,3.59,0,0,1-1.75,2.91,27.19,27.19,0,0,1-7.06,1.26c-11.4.65-22.33-1.2-32.45-6.73A129.19,129.19,0,0,1,87,222.74c-3.89-2.75-8.18-7.51-8.66-12.45-5.11-.34-10.22-.52-15.28-1.06-7.66-.82-15.44-1.17-22.7-4.1-4.55-1.83-9-3.92-13.43-6-3.54-1.68-7.36-3.08-10.4-5.45-7.19-5.61-12.89-12.4-14.2-21.95C1.73,167,.66,162.24.13,157.47c-.79-7.1,2.17-12.89,6.76-18.13a69.71,69.71,0,0,1,27.82-19.1,12.35,12.35,0,0,1,2.3-.67c4.79-.86,9.6-1.68,14.4-2.53,2-.36,3.93-.23,4.34,2.14a4,4,0,0,1-2.46,4.7c-3.77,1.32-7.68,2.21-11.52,3.34-5.94,1.75-11.76,3.8-16.52,8a10.51,10.51,0,0,0-2,12.7c3.4,5.46,7.44,10.29,13.7,12.88,5,2.07,9.82,4.59,14.71,6.91,7.09,3.37,18.86,5.39,24.72,5a91.48,91.48,0,0,1,1.11-9.21c2.65-12.21,9.64-21.14,20.46-27.4,16.57-9.59,34.1-17,52.05-23.48,10.77-3.9,21.32-8.42,32.21-11.93,14-4.51,28.17-8.48,42.37-12.28a89.38,89.38,0,0,1,17.24-2.65,86.69,86.69,0,0,1,14.73.74c8.4.89,16.75,2.31,25.17,3a198.05,198.05,0,0,1,29.49,4.77,69.19,69.19,0,0,1,9.65,3.5c5.82,2.35,8,7.22,8.64,13a176.5,176.5,0,0,1,.71,33.47c-.77,8.82-.9,17.69-2.92,26.35-1.65,7.1-3.89,14-9.82,18.79a36.14,36.14,0,0,1-8.9,5c-7.23,3-14.5,5.94-21.94,8.3A45.77,45.77,0,0,1,270.81,205a20,20,0,0,1-16.36-9c-1.7-2.4-3.25-4.89-4.83-7.36s-4-3.45-7-3.26c-6.16.4-10.52,3.57-13.61,8.66-4.65,7.67-9.2,15.4-13.81,23.1a31.14,31.14,0,0,1-11.13,11.4,57.84,57.84,0,0,1-12.5,4.77c-7.38,2.12-14.82,4.12-22.35,5.62-3,.6-6.39,0-9.53-.51-4.75-.76-7.8-3.94-10.35-7.87-5.58-8.59-6.4-18.35-7-28.1s-.8-19.74-.86-29.61c-.08-11.89,4.88-21.55,13.55-29.59,7.11-6.59,15.54-11,24-15.5,14.44-7.71,29.84-13,45.55-17.29C238.72,106.6,253,103.37,267.3,100c4.18-1,8.46-1.53,12.7-2.28ZM148.52,192.76h.08c.11,2.24.13,4.48.35,6.71.79,8.08,1.14,16.23,4.66,23.8,3.35,7.18,9.64,10.63,17.39,9,7.18-1.54,14.35-3.15,21.39-5.2,4.94-1.43,10.17-2.68,13.76-6.88a60.93,60.93,0,0,0,5.82-7.62c4.07-6.63,7.82-13.45,11.84-20.1,4.58-7.55,10.9-12.41,20.14-13,4.16-.26,7.45.92,9.89,4.17,2,2.67,3.68,5.62,5.66,8.33,2.53,3.46,5.81,6,10.18,6.57,6.16.82,12.18-.36,17.93-2.32,7.5-2.54,14.84-5.57,22.19-8.52a15.12,15.12,0,0,0,8.39-7.19c3.18-6.34,4.27-13.19,4.86-20.1.47-5.6.08-11.28.63-16.86,1.09-11,0-21.81-.67-32.69a10.37,10.37,0,0,0-8.94-9.6,70.8,70.8,0,0,0-13.17-.66,150.46,150.46,0,0,0-19.56,1.92c-8.65,1.55-17.19,3.77-25.75,5.8-7.31,1.72-14.67,3.33-21.88,5.43-8.51,2.48-16.91,5.33-25.3,8.2a152.79,152.79,0,0,0-16.12,6.14c-7.22,3.41-14.15,7.4-21.23,11.11A54.07,54.07,0,0,0,153.36,154a21.29,21.29,0,0,0-4.77,12.4C148.35,175.18,148.52,184,148.52,192.76ZM15,141.18l-.56-.27c-1.62,2-3.35,3.84-4.84,5.89a10.93,10.93,0,0,0-2.1,8.63c.69,3.83,1.49,7.65,2.25,11.47a29.28,29.28,0,0,0,12.88,19,64.17,64.17,0,0,0,10.13,5.22c5.67,2.52,11.28,5.39,17.22,7,5,1.38,10.37,1.49,15.59,1.65,6.47.2,13-.1,19.44-.27,2.31-.06,4.63-.35,6.94-.56l17.89-1.59c1.45-.13,2.62-.79,2.55-2.33-.18-3.74-.51-7.47-.91-11.2,0-.46-.82-1.11-1.35-1.22a40.86,40.86,0,0,0-6.4-1c-9.82-.38-19.65-.49-29.47-1-5.33-.28-10.83-.46-15.9-1.93-7.07-2.05-13.84-5.19-20.68-8s-12.8-6.46-17.57-12.24c-3.5-4.25-5.71-8.69-5.13-14.28A28.19,28.19,0,0,0,15,141.18Z" fill="#fff"/>
          <path d="M273.78,36.6c-1.07-.53-3.06-1.12-3-1.59a5.87,5.87,0,0,1,1.63-3.72c3.09-2.87,7.13-2.42,10.93-2.51,2-.05,4,.46,6,.53A2.71,2.71,0,0,1,292,32a2.64,2.64,0,0,1-2.67,3.06L274,36Z" fill="#fff"/>
          <path d="M302.56,0a14.39,14.39,0,0,1,1,3.41c.26,5.43.39,10.87.52,16.3a11,11,0,0,1-.33,2.61c-.35,1.56-1.09,2.66-3,2.28-1.63-.33-2.72-.85-2.61-2.94.31-5.74.36-11.48.57-17.22C298.85,2.23,299.84.62,302.56,0Z" fill="#fff"/>
          <path d="M309.83,37.79a45,45,0,0,1-4.79-.32c-.66-.1-1.63-.71-1.74-1.23a2.85,2.85,0,0,1,1-2,3.2,3.2,0,0,1,1.9-.86c6.53-.47,13.07-.86,19.61-1.27,1.79-.12,3,.59,3.08,2.46s-1.4,2.21-3,2.28c-5.35.25-10.71.55-16.06.82Z" fill="#fff"/>
          <path d="M299.8,43.62c.38,1.37,1.16,2.77,1.07,4.11-.31,5-.79,9.9-1.48,14.81-.17,1.21-1.12,2.91-2.13,3.3-2.46.94-3.94-.52-3.54-3.15.79-5.14,1.54-10.29,2.6-15.38.29-1.41,1.58-2.63,2.41-3.93Z" fill="#fff"/>
          <path d="M95.64,60.17c.41,1.43,1.15,2.84,1.16,4.25,0,5.44-.15,10.88-.32,16.32a9.32,9.32,0,0,1-.59,2.07c-.47,1.7-1.79,1.59-3.09,1.43-1.52-.19-2-1.26-1.84-2.6C91.51,75.83,92,70,92.71,64.22,92.89,62.62,93,60.76,95.64,60.17Z" fill="#fff"/>
          <path d="M121.84,93.92c-4.92.28-9.84.62-14.77.79a9.23,9.23,0,0,1-2.93-1c.64-1,1.09-2.55,2-2.86a21.74,21.74,0,0,1,6.33-1,62.77,62.77,0,0,1,8.56.31,4.08,4.08,0,0,1,2.48,1.61C124.42,93.07,123.48,94.51,121.84,93.92Z" fill="#fff"/>
          <path d="M93.94,101.07c.58,1.3,1.12,2,1.12,2.62.06,4.54,0,9.08,0,13.62a4.07,4.07,0,0,1-.35,2.09c-.45.67-1.31,1.54-1.94,1.5s-1.86-1-1.86-1.63c0-4.76,0-9.52.42-14.26C91.41,103.82,92.79,102.73,93.94,101.07Z" fill="#fff"/>
          <path d="M67.37,95c-1.08,0-2.76.08-4.43,0-.72,0-1.89-.38-2-.8a2.76,2.76,0,0,1,.58-2.35,5.14,5.14,0,0,1,3.07-1.54A104.6,104.6,0,0,1,75.78,91c.83.11,1.54,1.28,2.31,2-.82.48-1.59,1.27-2.46,1.39C73.09,94.73,70.53,94.8,67.37,95Z" fill="#fff"/>
          <path d="M223.28,40.41c.59,1.33,1.48,2.54,1.57,3.8.06.85-.93,2.43-1.61,2.53-1.17.16-2.46-.59-3.69-1a35.32,35.32,0,0,1,1.62-3.91C221.46,41.35,222.26,41.1,223.28,40.41Z" fill="#fff"/>
          <path d="M309.63,243.69c1.68,1.47,2.45,3.08.85,4.59-.48.46-2.71.09-3-.51C306.31,245.7,308.08,244.72,309.63,243.69Z" fill="#fff"/>
        </g>
      </g>
    </g>
  </g>
</svg>
