<svg xmlns="http://www.w3.org/2000/svg" viewBox="0 0 211.44 231.56">
  <g id="Layer_2" data-name="Layer 2">
    <g id="Layer_1-2" data-name="Layer 1">
      <g>
        <g id="D8qiV8">
          <g>
            <path d="M51.85,154.4a161.42,161.42,0,0,0-26.66,35.31,8.69,8.69,0,0,1-3.44,2.87,1.75,1.75,0,0,1-2.8-1.36,25.48,25.48,0,0,1-.42-4.6q.43-31.58,1-63.16c.06-4.08.2-8.17.39-12.24.13-2.6-.06-4.86-2.33-6.76-7-5.91-10.5-14-13-22.58C2.81,76.16.91,70.37.33,64.49-1.39,47,3.57,31.78,16.73,19.58c8.08-7.49,17-13.55,27.48-17C48.7,1.09,53.29-.87,58,.42s9.7,1.34,14.18,3.94C77.09,7.22,82.67,9,87.68,11.74a29.57,29.57,0,0,1,14.59,17.77c2,6.57,4,13.17,5.39,19.88a57,57,0,0,1-1.06,26.12A122.08,122.08,0,0,1,100,93a16.74,16.74,0,0,1-4.48,5.37c-1.57,1.39-1.73,2.8-1.73,4.74,0,11,.36,22-.49,33-1.23,15.63-3.41,31.19-5.15,46.78-.23,2.07-.85,3.64-3,4.32-2,.63-2.94-.79-4.14-1.86-5.22-4.66-10.77-9-15.61-14-4.36-4.51-8-9.76-11.9-14.68C52.92,155.82,52.35,155.05,51.85,154.4ZM7.41,56c0,2.16-.4,4.42.08,6.48a156.67,156.67,0,0,0,4.71,17.4c2.36,6.64,5.32,13,10.77,18,9.25,8.33,20.78,8.7,32.05,8.63,10.19-.06,19.79-3.72,28.89-8.37,4.73-2.42,9-5.47,11.57-10.31,5.51-10.49,6.69-21.88,5.24-33.32-.9-7.14-3.66-14-5.54-21.05C93,25.12,87.27,20,79.85,16.37a132.52,132.52,0,0,1-13-7.19,10.79,10.79,0,0,0-7.08-1.85c-.85.07-2.2.1-2.52-.38C56.05,5.12,54.58,5.61,53,6,43,8.11,34.32,12.84,26.35,19.18,14.45,28.65,6.67,40.09,7.41,56ZM25.77,177.47c2.61-3.88,4.71-7.62,7.4-10.86,5.26-6.32,11-12.21,16.22-18.59,1.83-2.26,3.11-1.92,4.87-.59a7.83,7.83,0,0,1,1.79,2c7.26,11.42,17.17,20.31,28.13,29.12,1-24.84,6.34-49.2,3.53-74.42-19.88,11.19-40.49,13.8-61.94,6.53Z" fill="#fff"/>
            <path d="M124.58,138.45l-3.45-1.93a17.7,17.7,0,0,1,2.22-3.41,5.53,5.53,0,0,1,2.93-1.26c10.57-1.62,21.15-3.24,31.75-4.69,4.37-.6,8.8-.69,13.18-1.25,2.36-.3,3.81.79,4.21,2.73s-.94,3.5-3,3.76c-5.1.65-10.23,1.11-15.34,1.72-9.94,1.19-19.87,2.43-29.81,3.65-.81.1-1.62.17-2.43.26Z" fill="#fff"/>
            <path d="M152.1,98.37c6.48,0,13,.09,19.45-.05,2.07,0,3.19.86,3.33,2.65s-1.21,2.79-2.92,2.94c-4.22.38-8.45.72-12.68,1-5.59.34-11.17.71-16.76.77-1.49,0-3-1.05-4.49-1.62,1.12-1.28,2-3.33,3.4-3.7,3.44-.93,7.08-1.11,10.63-1.59Z" fill="#fff"/>
            <path d="M156.16,163.15c1.71,0,3.43.06,5.15,0,1.36-.06,2.92,0,2.74,1.65a4,4,0,0,1-2.42,2.66,44.38,44.38,0,0,1-7.23,1.07c-4.31.49-8.61,1.05-12.94,1.28-1.3.07-3.64-.62-3.81-1.36-.48-2.13,1.47-3.29,3.23-3.63,5-1,10.13-1.6,15.2-2.38Z" fill="#fff"/>
            <path d="M49.65,23.69c3.11.89,3.43,2.6,3.56,4.66.4,6.49,1,13,1.48,19.45.06.72.34,1.56.07,2.14-.39.85-1.1,2-1.81,2.13a2.78,2.78,0,0,1-2.32-1.48,66.59,66.59,0,0,1-2.3-10.28,58.89,58.89,0,0,1-.2-10.54C48.25,27.73,49.11,25.73,49.65,23.69Z" fill="#fff"/>
            <path d="M51.12,64.6a3.48,3.48,0,0,1,3.23,3.75c.29,7.36.15,14.68-1.65,21.88-.17.7-.2,1.59-.65,2a17,17,0,0,1-2.76,1.84c-.35-.91-1-1.85-1-2.75q.65-11.26,1.57-22.53A20.54,20.54,0,0,1,51.12,64.6Z" fill="#fff"/>
            <path d="M31.68,28.9c5,3.22,8.15,7.87,11.29,12.46a4.3,4.3,0,0,1-.12,3.87c-1,1.52-4.15,1.27-5.66-.18-1.3-1.24-2.43-2.66-3.66-4-1-1-2-2-3-3-2.28-2.36-2.31-4.9-.11-7.47C30.82,30.1,31.16,29.58,31.68,28.9Z" fill="#fff"/>
            <path d="M42.63,63.71c4.21,2.22,4.58,3.55,2.11,6.88a73.79,73.79,0,0,1-7,8.84c-1.25,1.23-4.35,2.39-5.3,1.72-1.77-1.26-.95-3.77.43-5.49C36,71.66,39.32,67.74,42.63,63.71Z" fill="#fff"/>
            <path d="M42,59.38c-5.29-.39-10.58-.7-15.85-1.25a2.77,2.77,0,0,1-1.77-2.06c0-1.84.64-3.71,2.84-3.93a17,17,0,0,1,5.08.32c3.79.77,7.55,1.71,11.3,2.64,1.6.39,3.59,1,3,3-.26.82-2.44,1-3.76,1.51-.23.08-.53,0-.8-.08Z" fill="#fff"/>
            <path d="M63,69.2a32.1,32.1,0,0,1,3.46,2.89,111.43,111.43,0,0,1,7.37,8.6c.76,1,1.23,3.13.67,4a2.7,2.7,0,0,1-4.28.17,99.21,99.21,0,0,1-8.71-10.52c-.72-1,.21-3.24.39-4.91Z" fill="#fff"/>
            <path d="M77.21,37.61c-.64,1.38-.79,2.32-1.33,2.75C72.5,43,69.09,45.69,65.55,48.14c-.78.54-2.12.27-3.2.38,0-1.13-.48-2.47,0-3.34,2.53-4.74,6.91-7.41,11.64-9.43C74.64,35.46,76.05,36.91,77.21,37.61Z" fill="#fff"/>
            <path d="M72.18,63.43c-2.51-.26-5-.47-7.54-.79-1.72-.22-3-1.07-2.59-3s1.34-3.26,3.79-2.65c3.14.77,6.35,1.27,9.53,1.91,1.46.3,3.22.76,2.65,2.61-.26.86-2,1.4-3.13,1.8a9,9,0,0,1-2.7,0Z" fill="#fff"/>
          </g>
        </g>
        <path d="M202.34,44.45c-7-.57-14-1.47-20.9-1.63-11.95-.26-23.91.13-35.86-.16-5.3-.13-10.58-1.27-15.87-1.95-1.68-.21-3.22-.82-3-2.79.3-2.22,2.31-1.72,3.72-1.62,4.43.28,8.84,1.05,13.26,1.06,9.86,0,19.73-.6,29.59-.43,7.87.14,15.73,1.07,23.59,1.64,2.26.17,4.52.34,6.78.44s4.51.62,5.65,3a2.75,2.75,0,0,1,.39,1.63c-1.71,7.17-.47,14.34-.1,21.52s.66,14.42.91,21.64c.18,5.21.25,10.42.34,15.64,0,.8-.27,1.79-.27,2.35A64,64,0,0,0,211.3,116c.42,9.67-.25,13.32-.4,23-.35,22.5-1.18,45-1.88,67.5-.23,7.32-.66,14.64-1,22a3.21,3.21,0,0,1-3.86,3.05,36.25,36.25,0,0,1-5.05-1.06c-10.54-2.94-21.35-2.64-32.12-2.72-11.94-.08-97.25.05-109.19.08-2.79,0-5.59.14-8.35-.13s-3.49-1.65-3.17-4.32C46.53,221.12,48,221,50,221c12.12,0,97.6-.25,109.71,0,9.41.19,18.82.76,28.19,1.63,5,.47,9.9,1.95,15.66,3.14,0-4.35-.08-8.56,0-12.77Q204,192,204.6,171.1c.52-18.57,1.18-37.13,1.53-55.71.08-4.12-1-8.25-1.29-12.4-.35-4.77-.44-9.56-.68-14.35-.59-11.84-1.23-23.69-1.8-35.54C202.23,50.39,202.34,47.67,202.34,44.45Z" fill="#fff"/>
        <path d="M46.29,224.53c.57-7,1.46-13.95,1.62-20.9.27-11.95-.13-23.91.17-35.86.13-5.3,1.26-10.58,1.94-15.87.21-1.68.83-3.22,2.8-3,2.21.3,1.71,2.3,1.62,3.72-.29,4.43-1.06,8.84-1.07,13.25,0,9.87.6,19.74.43,29.6-.14,7.87-1.07,15.73-1.64,23.59-.17,2.26-.33,4.51-.44,6.77" fill="#fff"/>
      </g>
    </g>
  </g>
</svg>
