<svg xmlns="http://www.w3.org/2000/svg" viewBox="0 0 264.66 256.08">
  <g id="Layer_2" data-name="Layer 2">
    <g id="Layer_1-2" data-name="Layer 1">
      <g id="JXfvNS">
        <g>
          <path d="M194,0c2.17,1.68,1.7,3.62,1.27,5.9a112.42,112.42,0,0,0-1.56,13.33c-1.08,16.12-1.77,32.24-.78,48.4.34,5.61-.18,11.26-.24,16.89q-.18,19-.29,38A4.89,4.89,0,0,0,193,125c4.56,7.49,9.08,15,13.84,22.39,3.69,5.7,7.85,11.09,11.52,16.8,4.44,6.91,8.62,14,12.82,21q7.44,12.54,14.71,25.18c2.81,4.89,5.48,9.86,8.18,14.81,1,1.84.34,3.81-2.25,6.36-1.37-1.56-3-2.92-4-4.65-4-6.86-7.61-13.91-11.6-20.75-3.07-5.28-6.47-10.37-9.75-15.52-6.75-10.6-13.7-21.08-20.22-31.82-5.61-9.27-10.79-18.8-16-28.28-.71-1.28-1.45-1.94-2.84-1.91-10.62.23-21.26.29-31.87.75-8.77.37-17.5,1.63-26.26,1.75-10.59.15-21.21-.33-31.8-.83-7.73-.37-15.43-1.25-23.15-1.78a3.67,3.67,0,0,0-2.77,1q-6.8,9-13.33,18.19c-2.95,4.12-5.63,8.44-8.69,12.48-3.62,4.79-7.48,9.39-11.3,14-2.63,3.2-5.45,6.23-8,9.47-5.75,7.3-11.41,14.67-17.06,22-1.8,2.35-3.35,4.91-5.25,7.18a10.64,10.64,0,0,1-3.73,2.67c-2.34,1.05-3.94-.25-3.23-2.81a18.69,18.69,0,0,1,2.88-5.5C9.9,198.72,15.9,190,22.41,181.69c5.25-6.72,11.34-12.77,16.71-19.4,4.44-5.47,8.22-11.48,12.58-17,5.43-6.89,11.17-13.54,16.74-20.32a3.22,3.22,0,0,0,.63-1.68c1.05-14.1,2.4-28.18,3-42.29.46-10.79-.24-21.63-.06-32.44.23-14.18.79-28.34,1.27-42.51.1-2.91.48-3.4,2.65-5.19,1.77.82,2.08,2.32,2,4.09-.16,8.71-.33,17.42-.4,26.13-.12,16.73.18,33.46-.37,50.17-.42,12.67-1.9,25.31-2.91,38-.07.93-.14,1.86-.24,3.08,5.08.29,10,.68,14.89.85,10.34.34,20.68.53,31,.85,5,.15,10,.69,15,.58,4.75-.1,9.47-.92,14.22-1.23,6.17-.4,12.34-.75,18.52-.86,5.78-.1,11.57.14,17.36.25,1.35,0,1.92-.45,1.93-1.93.11-18.53.35-37.06.4-55.59,0-10.52-.58-21.05-.26-31.56.26-8.84,1.37-17.66,2.23-26.48C189.64,4.05,191,1.43,194,0Z" fill="#fff"/>
          <path d="M225.08,21.74c3.32,2.47,7.1,5,10.57,8a81.56,81.56,0,0,1,6.94,7.09c3.7,3.95,7.35,8,11,11.93,2.92,3.15,6,6.14,8.7,9.48,1.24,1.54,2.48,3.81,2.33,5.63-.75,8.88-2,17.71-3,26.56-.87,7.48-1.59,15-2.52,22.43-1,7.85-2.11,15.68-3.22,23.51-.58,4.09-1.11,8.2-2,12.24a8.32,8.32,0,0,1-2.37,3.87c-1.08,1.06-2.62,1.41-3.79-.18-2.35-3.2-4.86-6.29-7-9.63-5.78-9.17-11.34-18.47-17.09-27.65-1.1-1.76-2.81-3.12-4-4.84a8.8,8.8,0,0,1-1.65-4c-.29-4.14-.37-8.3-.28-12.45.21-9.54.66-19.08.86-28.63s.14-19,.37-28.48c0-1.61,1-3.2,1.49-4.8A5.77,5.77,0,0,0,221,30C220.9,26.85,221.42,24,225.08,21.74ZM249,142a8.14,8.14,0,0,0,.67-1.6c1.59-13,3.25-26,4.72-39,1.26-11.08,2.32-22.18,3.42-33.27a3.53,3.53,0,0,0-.4-2.41c-4.44-5-8.93-9.89-13.52-14.72-3.86-4-7.94-7.87-11.79-11.92-2-2.08-3.66-4.42-5.4-6.56-2.7,2.2-2.7,2.2-2.48,4.36.12,1.18.37,2.34.4,3.51C225,58.18,226.19,76,224,93.76a55.25,55.25,0,0,0-.31,6.81,4.59,4.59,0,0,0,.75,2.59c3.47,4.8,7.32,9.35,10.51,14.32,4.05,6.31,7.61,12.93,11.35,19.44C247.17,138.44,247.94,140,249,142Z" fill="#fff"/>
          <path d="M94.53,248.07c.73-8.29,1-16.89,4-25.18,1.83-5,2.37-10.38,3.6-15.57,1.84-7.78,3.91-15.51,5.65-23.31,1.38-6.2,2.42-12.47,3.6-18.71.72-3.79,3.41-5.75,7.29-5.71,6.81.06,13.63,0,20.44-.17,4.35-.13,5.46.76,6.07,5,1.91,13.11,3.59,26.26,6,39.27,1.67,8.92,4.54,17.61,6.76,26.43.58,2.29,1.54,4.68-.31,7-.3.38,0,1.35.2,2,.4,1.84,1,3.64,1.26,5.49.49,4-.63,6-4.5,7.09-5.65,1.61-11.37,2.95-17.11,4.18a22.9,22.9,0,0,1-5.61,0c-10.73-.44-21.46-.92-32.2-1.34C95.45,254.37,94.51,253.32,94.53,248.07Zm5.14-13.83a67.1,67.1,0,0,1,7.69-.8c6.1.06,12.19.5,18.28.54,7.52.05,15-.13,22.56-.25,2,0,4-.24,6.36-.4-6.85-22.59-12.41-45-13.94-68H115.55C112.51,188.82,105.7,211.23,99.67,234.24Zm54.46,4c-1.12.07-2.06.08-3,.17a217.36,217.36,0,0,1-35.72.35c-4.73-.34-9.54.28-14.31.57-.62,0-1.71.69-1.73,1.11-.16,2.7-.08,5.41-.08,8.2,3.76,0,7.34-.11,10.92,0,5.07.18,10.14.6,15.22.8,4.35.16,8.76.59,13.06.1,5.17-.6,10.26-2,15.36-3.18a2.06,2.06,0,0,0,1.11-1.64C154.84,242.69,154.45,240.61,154.13,238.29Z" fill="#fff"/>
          <path d="M96.79,15.28l2.34.76,0-.47a11.57,11.57,0,0,1,2.49-.78c3.25-.29,6.52-.57,9.79-.65,6.09-.16,12.18-.28,18.27-.25,9,0,18,.32,27,.34,2.65,0,5.3-.57,8-.8,3.13-.28,4.49,1,4.49,4.21,0,9.26.05,18.53,0,27.79,0,14.37,0,28.73-.17,43.1,0,4.47-.52,4.61-5,4.69-14,.26-28.09.67-42.13,1-2.75.06-5.51-.2-8.24,0-3.58.25-7.15.82-10.72,1.24-1.39.16-2.79.28-4.18.43-2.09.22-2.76-.89-2.83-2.8-.31-8.31-.85-16.62-1-24.94-.23-15.69-.23-31.38-.34-47.07C94.47,18.85,94.9,16.85,96.79,15.28Zm67.4,4.12-64.6,2V90.35a608.53,608.53,0,0,1,65.8-1.82C165,65.33,164.59,42.14,164.19,19.4Z" fill="#fff"/>
          <path d="M40.29,26.19a3.88,3.88,0,0,1,2.3,4.27c-.74,7.17-1.37,14.36-1.84,21.56-.62,9.44-1.09,18.9-1.53,28.36-.24,5.08-.35,10.17-.4,15.25a10.3,10.3,0,0,1-3,7.74c-9.15,9.49-18,19.3-27,28.93A51.86,51.86,0,0,1,3,137.69c-1.59,1.23-2.55.74-2.87-1.28a10.35,10.35,0,0,1,.09-3,268.43,268.43,0,0,0,3-37.27c0-9.16,1.23-18.32,1.84-27.48.21-3.13.24-6.27.29-9.4a7.57,7.57,0,0,1,2.78-5.71c3.29-3,6.38-6.24,9.71-9.21,5-4.43,10.05-8.71,15.09-13a1.65,1.65,0,0,1,.81-.47C36.75,30.51,38.62,28.4,40.29,26.19Zm-3.14,9.36c-2,.9-3.74,1.32-5,2.37-3.75,3.18-7.34,6.57-10.92,9.95s-7.11,6.82-10.58,10.32a4,4,0,0,0-1.05,2.36c-.2,3.05-.11,6.12-.31,9.17C8.8,77.54,8.12,85.35,7.64,93.18c-.54,8.83-.9,17.68-1.41,26.51-.16,2.77-.55,5.53-.88,8.79a19.53,19.53,0,0,0,1.57-1.33c2.77-3.09,5.45-6.26,8.31-9.27,6-6.35,12.18-12.59,18.23-18.93a4.13,4.13,0,0,0,1-2.45c.18-4.54.18-9.09.3-13.64.35-13.5.43-27,1.69-40.5C36.7,40.19,36.91,38,37.15,35.55Z" fill="#fff"/>
          <path d="M124.64,63a10.45,10.45,0,0,0,6.69,5.84c6.36,2,12.65,2.16,18.58-1.54.27-.17.58-.25.85-.41,1.05-.61,2.34-.93,2.79.36a3.25,3.25,0,0,1-.79,2.94,26,26,0,0,1-17.3,5.64c-5.11-.26-10.08-1-13.66-5.12-1.62-1.86-2.84-4.06-4.28-6.08-.37-.54-.82-1.39-1.29-1.44-6.71-.6-8.86-5.33-10.06-10.93-1.5-7.07,1.35-13.69,8-17.91,4.18-2.67,8.67-4.76,13.8-4.67,6.6.11,13.06.95,19,4.2a2.65,2.65,0,0,1,.4.24c1.46,1.07,3.52,2.28,2.22,4.21-.62.92-3.2,1.25-4.55.81a41.86,41.86,0,0,0-19.69-2,19.24,19.24,0,0,0-12.07,6.75A5.35,5.35,0,0,0,112,47.47a22.61,22.61,0,0,0,1.75,6.27c.43,1,1.67,1.6,2.46,2.31,1.25-2.44,2.06-4.67,3.4-6.52,3.94-5.44,9.66-6.58,15.86-5.71a12.44,12.44,0,0,1,5.45,2.41c3,2.25,3.05,5.94.54,8.78-3.15,3.58-7.25,5.36-11.72,6.54C128.08,62,126.45,62.47,124.64,63ZM123,56.67c5.19-1.11,10.57-1.36,14.83-5.31C133.6,48.15,122.86,50.6,123,56.67Z" fill="#fff"/>
        </g>
      </g>
    </g>
  </g>
</svg>
