<svg xmlns="http://www.w3.org/2000/svg" viewBox="0 0 362.24 262.61">
  <g id="Layer_2" data-name="Layer 2">
    <g id="Layer_1-2" data-name="Layer 1">
      <g>
        <path d="M238.29,142.52c.11,29.81-15.55,49.33-41.9,57.24-9.54,2.86-18.58,7.37-29,5.25-42.29-8.63-64.44-52.78-43.16-88.11,12.1-20.09,29.48-31.71,51.79-35.47,15.11-2.54,30.23-.79,42.93,9.89a44.53,44.53,0,0,1,15.38,24.91C236.26,124.86,237,133.75,238.29,142.52Zm-12.43-6.31c-.94-18.05-5-36.28-27.41-45.18-12.73-5.06-23.16-1.23-34.11,3.78-20.1,9.21-31.62,25.42-35.66,46.46-3.53,18.37,7.51,35.67,27.87,47.12,17,9.55,40.58,5.78,54.22-8.16C222.17,168.57,225.65,154.3,225.86,136.21Z" fill="#fff"/>
        <path d="M360.63,250.19c-14.14-6.94-28.37-13.72-42.4-20.87q-39.62-20.2-79-40.82c-3.15-1.64-5.8-4.23-8.68-6.38l1.3-2.55c2.25.51,4.53.89,6.72,1.57,32.89,10.26,60.79,30.2,90.53,46.58,9.49,5.23,19,10.38,28.4,15.8,1.89,1.1,3.18,3.24,4.76,4.9Z" fill="#fff"/>
        <path d="M0,181.25c2.5-1.48,4.9-3.17,7.51-4.41,27.55-13,56.41-22.37,85.78-30.24a13.37,13.37,0,0,1,6.33-.52c1.52.37,2.67,2.27,4,3.5-1.2,1.19-2.19,3-3.63,3.48Q53,168.39,6,183.38c-1.61.52-3.52.07-5.29.07Z" fill="#fff"/>
        <path d="M148,0c2.46,3.1,4.83,4.92,5.61,7.27,3.47,10.45,6.8,21,9.59,31.61,2.46,9.41,4.39,19,6.06,28.56.7,4,.12,8.2.12,12.31l-2.34.8c-2-2.31-4.69-4.32-5.71-7a87.57,87.57,0,0,1-4.61-16.79C153.77,38.69,151.17,20.56,148,0Z" fill="#fff"/>
        <path d="M249.31,91.19c8.71-4.63,17.55-9.51,26.55-14.07q9.54-4.84,19.46-8.91c1.83-.75,4.2-.18,6.33-.21-.79,2.06-1,4.79-2.49,6a98.09,98.09,0,0,1-12.64,9c-8.1,5-16.29,9.85-24.61,14.48C255.05,101.36,252.16,100,249.31,91.19Z" fill="#fff"/>
        <path d="M144,204.65a52.24,52.24,0,0,1-3.12,6.17c-11.52,16.45-23,32.9-34.78,49.21-1,1.37-3.38,1.74-5.11,2.58,0-1.91-.69-4.28.18-5.65q15.83-24.84,32.15-49.38a14.15,14.15,0,0,1,6-4.58C140.34,202.55,142.21,204,144,204.65Z" fill="#fff"/>
        <path d="M90.82,80.37c3.5-1.53,15.24,5.38,29.28,17.26C113.75,99.37,98.23,90.23,90.82,80.37Z" fill="#fff"/>
        <path d="M234.67,211.16l-5.18,6.22c-1.6-2.14-4-4.13-4.47-6.5-.28-1.31,2.62-3.28,4.08-4.95Z" fill="#fff"/>
        <path d="M90.84,202.13c3.26-2.34,5.08-4.65,6.66-4.5a7.09,7.09,0,0,1,5,4c.4,1.09-2.27,4.73-3.32,4.63C96.84,206,94.67,204.15,90.84,202.13Z" fill="#fff"/>
        <path d="M294.29,137.22l10.3,1.48C299.65,143.64,296.58,145,294.29,137.22Z" fill="#fff"/>
        <path d="M253.71,58.25c-2.26,1.48-4.19,3.19-4.55,2.9a11.28,11.28,0,0,1-3.39-4.49c-.21-.53,2.13-2.84,2.44-2.68C249.86,54.85,251.25,56.24,253.71,58.25Z" fill="#fff"/>
        <path d="M182.44,158.32c-1,5.71-1.6,10.25-2.77,14.61-.4,1.47-2.36,2.51-3.6,3.75-.74-1.42-2-2.8-2.12-4.25-.28-4.68-.11-9.39-.11-14.46-8.07,1.68-14,10.53-24.89,4.41l20.29-16.56c-6.1-6.62-12.18-13.21-19.35-21,13.05-2.54,16.68,9.15,24.81,13.43,2.51-7.88-1.49-17,3.61-24.25l2.16,0,2.88,23.15c5.47-2.65,10.34-5.5,15.56-7.33,2.37-.83,5.45.36,8.21.64-.85,2.65-.89,6.41-2.71,7.75-5.49,4.07-11.67,7.19-18.59,11.27,5,4.11,9.2,7.59,13.4,11.12,3.16,2.65,6.82,5.48,4.12,10-.39.64-6.4-1.36-9.23-3.09C190.14,165.06,186.71,161.75,182.44,158.32Z" fill="#fff"/>
      </g>
    </g>
  </g>
</svg>
