<svg xmlns="http://www.w3.org/2000/svg" viewBox="0 0 248.2 319.68">
  <g id="Layer_2" data-name="Layer 2">
    <g id="Layer_1-2" data-name="Layer 1">
      <g id="GxCWrC">
        <g>
          <path d="M111.26,262.23l-5.7-.6c-1.86-.19-3.17-1-2.69-3.09.76-3.33,1.68-6.64,2.58-9.94s2.25-6.72,2.84-10.17c.69-4,3.95-5.4,6.67-7.15,10.24-6.6,20.61-13,31-19.33a64.39,64.39,0,0,1,7.5-3.41c-.48-13.64,3.43-27.29,1-40.7-6.34,0-12.73-.09-19.11,0-10.47.18-20.93.47-31.4.71-5.79.13-11.59.57-17.36.3-9-.42-17.94-1.3-26.9-2-2.46-.2-3.61-1.65-3.55-4.65a66.94,66.94,0,0,1,.61-8.13c3-20.68,3.34-41.47,3.24-62.32-.07-17,.59-34,.9-51,.05-2.57.82-4.6,4.05-5.87.54,1.79,1.43,3.48,1.48,5.2.3,9.51.4,19,.55,28.55.18,11.47.75,23,.41,34.43-.36,12.39-1.52,24.75-2.45,37.12-.46,6-1.19,12-1.84,18.42l8.43.57c7.51.51,15,1.36,22.54,1.43,7.91.08,15.83-.63,23.75-.89,8.29-.27,16.59-.43,24.89-.6,3.49-.07,7-.18,10.49,0,1.82.08,2.7-.45,2.89-2.28.78-7.21,3.93-13.59,7.63-19.6,3.25-5.3,8.63-8.17,14.53-9.86,3-.87,6.14-1.4,9.76-2.21,1.73-29.6,3.48-59.36,5.21-88.95-5.39,0-10.24.18-15.07,0-11.12-.5-22.24-1.14-33.35-1.81-13-.79-26-2.19-39-2.35-10.65-.13-21.31,1.17-32,1.86-3.18.2-6.32.35-9.09-1.47-.25-3.66,2.18-5.32,4.84-6.79a3,3,0,0,1,1.24-.42c5.12-.16,10.24-.27,15.36-.44,5.87-.19,11.73-.56,17.6-.63s11.86,0,17.77.29c6.19.28,12.37.76,18.55,1.29,8.18.72,16.33,1.83,24.53,2.29,7.72.43,15.48.29,23.22.27a83.34,83.34,0,0,0,8.34-.63,4,4,0,0,1,4.61,4.31c-.39,10.2-.47,20.41-1.13,30.58-.64,9.93-1.89,19.82-2.78,29.74-.4,4.51-.58,9-.88,13.56-.42,6.21-.85,12.42-1.29,18.83,2-.11,3.93-.38,5.86-.3,8.73.34,17.47.59,26.17,1.27a55.63,55.63,0,0,1,11.05,2.4c6.23,1.8,8.38,5,9.55,11.89,1.78,10.51.69,21-1.15,31.51s-3.6,21-5.38,31.56c-.14.8-.47,1.83-.12,2.4,2.85,4.72.61,9.3-.13,13.94-1.32,8.2-2.51,16.42-3.76,24.63-.23,1.52-.16,3.18-.78,4.52a5.26,5.26,0,0,1-2.84,2.75c-1.91.51-2.3,1.44-2.4,3.22-.65,11.3-1.34,22.6-2.16,33.89-.28,3.91-1.15,5.06-4.83,5.29-5.47.35-11,.09-16.93.09,1.92-11,3.69-21.15,5.62-32.19-4,2.66-7.08,5.16-10.55,7-7.58,4-15.27,7.89-23.07,11.47-2.63,1.21-4.11,2.83-4.5,5.5q-1.51,10.47-2.85,21c-.33,2.6-.45,5.23-.59,7.85-.13,2.35-1,4-3.58,4.25-2.84.31-5.67.74-8.77,1.16-1.51-12.23,1-23.84.38-36l-29.38-12.58c-.3,3.91-.5,7.87-.92,11.8-.63,5.94-1.43,11.86-2.13,17.79-.35,3.06-1.68,4.09-4.66,3.47-2.47-.51-4.93-1.18-7.43-1.5-2-.26-2.88-1.2-2.9-3.15-.07-5.16-.19-10.32-.21-15.48C111.23,276.89,111.26,269.75,111.26,262.23Zm82.61-130.79c0,10.3,0,19.72,0,29.14,0,3.82-1,5.19-4.85,5.66a15.87,15.87,0,0,1-3.51-.09,87.2,87.2,0,0,0-23,.78c-1.19,13.9-2.36,27.49-3.54,41.23,2.6-.35,4.83-.8,7.07-.92,8.11-.43,16.24-.7,24.35-1.13,13.53-.71,27.05-1.52,40.58-2.2,1.69-.09,2.1-.88,2.35-2.31,2-11.26,4-22.52,6-33.78a90.65,90.65,0,0,0,1.13-27c-.4-3.29-1.78-6.21-5.32-7.13a71.31,71.31,0,0,0-10.32-2,138.13,138.13,0,0,0-14.1-.76C205.24,130.92,199.66,131.25,193.87,131.44ZM226,210.56c-1.16.05-2.32.08-3.48.16-6.77.46-13.54,1-20.31,1.37-13.82.77-27.65,1.32-41.46,2.27-4.79.34-9.64.69-13.92,3.81-5.52,4-11.42,7.56-17.19,11.26-3,2-6.16,3.83-9.65,6,5.7,2.54,11.27,3,16.75,3.79,7.83,1.16,15.71,2.13,23.47,3.69,4.26.85,8,1,11.86-1.39a98.81,98.81,0,0,1,13.4-7C200,228.36,212.16,218.22,226,210.56Zm-59.54,40.6V276.8c4.1-1.73,8-3.21,11.73-5,6.69-3.12,13.45-6.14,19.92-9.67,9.82-5.35,19.37-11.2,29.18-16.57,1.53-.85,2-1.49,2.16-3.09.51-5.29,1-10.59,1.88-15.84.66-4.07,1.78-8.07,2.69-12.1l-.48-.58C211.26,226.37,190.12,240.83,166.46,251.16ZM114.07,240.3c-1.17,4.57-2.27,8.9-3.33,13a54.85,54.85,0,0,1,6.86,2c11,4.87,22,9.85,32.91,14.86,3.29,1.51,6.49,3.21,9.76,4.84.47-8.23.92-16.14,1.4-24.58-5.78-1.09-12-2.42-18.35-3.42C133.42,245.48,123,246.49,114.07,240.3ZM187.4,132.69c-14.41.24-25.34,12.17-24.11,25.72H187.4Zm35,153.55c.83-10.78,1.62-21,2.43-31.58-1.26.65-2.41,1.31-3.6,1.85a5.76,5.76,0,0,0-3.73,5.32c-.31,3.86-1.29,7.66-1.84,11.5-.61,4.34-1.05,8.7-1.55,12.91ZM116.68,264.52c0,1.47,0,2.72,0,4,.14,8.21.4,16.43.4,24.64,0,4,0,4.17,5,4.24.9-7.54,2.08-15.13,2.63-22.76C125.21,268.24,123.4,266.32,116.68,264.52Zm52.1,19.91a18.54,18.54,0,0,0-3,1.31,2.64,2.64,0,0,0-1.11,1.76c-.3,7.33-.53,14.66-.73,22a28.42,28.42,0,0,0,.28,3.31l1,.06Z" fill="#fff"/>
          <path d="M43.41,280.32c.13-4.93.13-9.88.42-14.82.39-6.47,1-12.93,1.51-19.41.37-5.21.59-10.43,1-15.64.16-2-.77-2.32-2.5-2.54-9.95-1.3-20.06-1.79-29.57-5.44-4.82-1.85-9.19-4.13-12.46-8.6-3.79-5.18-1.15-13,3.8-15.38,4-1.9,8.09-4,12.36-4.8,9.55-1.83,19.22-3.17,28.89-4.19,4.53-.48,9.2.12,13.79.44,6.11.43,12.25.72,18.29,1.67C88,193,97,194.83,106,196.7c6.53,1.36,10,7.09,10.22,13.06.12,4.17-3,7.05-6.65,8.93a71.88,71.88,0,0,1-24.84,7.4c-10.14,1.18-20.37,1.6-30.56,2.36-.34,0-.69.1-.88.12-1.28,17.22-2.54,34.29-3.84,51.79,3.6.22,7.25.46,10.91.65s7.42.07,11.07.54c3.83.49,6.64,2.94,8.42,6.25,2.08,3.85-.57,9.59-5.17,12a35.63,35.63,0,0,1-16.49,3.86c-9,.07-18.09.08-27.13-.21a31.1,31.1,0,0,1-14.54-4c-5.21-3-5.94-7.92-2-12.51,2.93-3.38,6.79-4.84,11-5.32C31.19,281,36.94,280.78,43.41,280.32Zm28.92-60.18c7.6-1.16,13.88-1.85,20-3.16,4.92-1,9.7-2.81,14.52-4.34,1.37-.43,2.38-1.27,1.94-3a9,9,0,0,0-7.3-6.79c-1.51-.27-3-.62-4.52-.92-7.44-1.5-14.86-4.08-22.33-4.25-13.77-.31-27.63-2-41.37.85-7.57,1.56-15.36,2.22-22.47,5.66-2.26,1.09-3,2.52-1.44,4.38a19.82,19.82,0,0,0,6.19,5,52.23,52.23,0,0,0,17.94,4.53c7.61.65,15.19,1.59,22.81,2C62.08,220.41,67.86,220.14,72.33,220.14ZM18.89,291.66c1.36.77,2.3,1.63,3.36,1.86,5,1.05,10,2.34,15,2.78,6.7.58,13.46.53,20.19.61,5.17.07,10.31-.23,15.06-2.62,3.24-1.63,3.51-3,.43-4.92a14.49,14.49,0,0,0-7.26-2.52c-11.13.07-22.25.52-33.37,1C27.79,288,23.29,288.59,18.89,291.66Z" fill="#fff"/>
          <path d="M122.44,110.59c3.16,6.15,8.61,8.18,14.68,8.75,7,.66,13.29-2.07,19.62-4.47.76-.29,1.55-.52,2.28-.87,1.26-.62,2.63-1,3.12.67a7,7,0,0,1-.29,3.65c-.16.55-1,.93-1.67,1.3-6.57,3.94-13.46,7.09-21.07,8.35-8.89,1.47-16.93-.49-23.27-7.11-1.91-2-2.8-5-4.28-7.72a35.73,35.73,0,0,1-20.86-2.07c-3.91-1.55-7.55-3.67-8.39-8.14a26.73,26.73,0,0,1-.12-8.79c2.68-17.61,13.14-29.63,28.24-37.93a48.15,48.15,0,0,1,24.46-5.81c4.63.11,9.24,1.38,13.83,2.25a24.83,24.83,0,0,1,5.43,1.63c.9.39,1.48,1.5,2.2,2.29-.78.63-1.53,1.76-2.33,1.79a101.14,101.14,0,0,1-11.68,0,58.79,58.79,0,0,0-22,2.56c-6.6,2.1-12.2,6-17.45,10.59C96.57,77,93,83.91,91.29,92c-.92,4.43-.34,8.26,2.32,9.52a35.19,35.19,0,0,0,8.94,3c2.6.45,5.38-.27,8.06-.11,2.49.15,3-1.35,3.54-3.2,1.92-6.67,5.12-12.62,10.63-17,4.59-3.64,9.55-6.22,15.89-5.23,8.5,1.34,11.55,8.33,6.81,15.82-4.14,6.56-10.61,9.92-17.31,13C127.79,108.88,125.25,109.59,122.44,110.59Zm.77-9a39.82,39.82,0,0,0,16.38-7.72c1.52-1.24,3.85-2.64,2.49-5s-3.92-1.71-6.16-1.51a3.15,3.15,0,0,0-.77.25C128.76,90,124.92,94.58,123.21,101.56Z" fill="#fff"/>
          <path d="M42.49,8.58c-.57,7-1.47,14-1.62,20.9-.27,12,.12,23.91-.17,35.86-.13,5.3-1.27,10.58-2,15.87-.21,1.68-.82,3.22-2.79,3-2.22-.3-1.71-2.3-1.62-3.72.28-4.42,1-8.83,1.06-13.25,0-9.87-.6-19.74-.43-29.6C35.11,29.72,36,21.87,36.62,14c.16-2.26.33-4.52.43-6.78s.62-4.52,3-5.66a2.8,2.8,0,0,1,1.62-.39c7.17,1.72,14.35.47,21.52.1S77.61.63,84.83.38C90,.2,95.26.13,100.47,0c.8,0,2-.17,2.35.27,1.55,2,3.44,1,5.23.9,9.67-.43,19.34-1.33,29-1.18,22.5.35,45,1.17,67.5,1.87,7.32.23,14.64.66,22,1a3.2,3.2,0,0,1,3,3.86,36.11,36.11,0,0,1-1.06,5c-2.94,10.54-2.64,21.36-2.71,32.12-.09,11.94,0,23.88.07,35.83,0,2.78.14,5.59-.12,8.35s-1.66,3.48-4.33,3.17C219.16,91,219,89.55,219,87.61c.05-12.12-.25-24.24,0-36.35.19-9.4.76-18.82,1.64-28.18.46-5,1.94-9.91,3.13-15.66-4.35,0-8.56.08-12.76,0q-20.94-.48-41.87-1.08c-18.57-.51-37.13-1.17-55.7-1.53-4.13-.08-8.26,1-12.41,1.29-4.77.36-9.56.44-14.34.68C74.84,7.36,63,8,51.14,8.56,48.43,8.69,45.71,8.58,42.49,8.58Z" fill="#fff"/>
          <path d="M30.63,182.55a36.63,36.63,0,0,1-.65-6c.42-7.41,1.29-14.8,1.55-22.21.38-10.86.36-21.74.58-32.6.08-4.17.16-8.35.6-12.48.19-1.71,1.33-3.31,2.12-5.14,2.71,1.62,2.73,3.71,2.7,5.77-.1,6.43-.35,12.86-.34,19.29,0,8.87.4,17.74.26,26.6-.11,7.42-.67,14.84-1.19,22.24C36.05,180.91,33.76,181.9,30.63,182.55Z" fill="#fff"/>
        </g>
      </g>
    </g>
  </g>
</svg>
