<svg xmlns="http://www.w3.org/2000/svg" viewBox="0 0 320.54 258.96">
  <g id="Layer_2" data-name="Layer 2">
    <g id="Layer_1-2" data-name="Layer 1">
      <g id="Gjc2zV">
        <g>
          <path d="M109.79,208.31c1.79-4.81,3.52-9.45,5.4-14.48-1.77-.09-3.25-.18-4.73-.23-16-.48-32.07-1.08-48.11-1.39-5.42-.1-10.85.52-16.28.8-.91.05-1.81.08-2.72.05-5-.17-5.91-1.05-5.85-6,.1-9.5.36-19,.43-28.5.06-7.28,0-14.57-.14-21.85-.13-8-.12-16-.62-24-.63-10-2.25-19.93-2.49-29.92-.3-12.12.46-24.27.63-36.41.12-8,0-16.08.06-24.12,0-2.82-.46-5.95,2.69-7.24-.85-1.11-2.41-2.69-2.2-3,.93-1.28,2.28-2.95,3.64-3.11C47.22,8.13,55,7.09,62.73,7.14c14.7.08,29.4,1,44.1,1.31,9.21.18,18.43-.15,27.65-.35,10.19-.21,20.38-.41,30.56-.81,15.72-.62,31.44-1.38,47.16-2.12C226.46,4.49,240.73,4,255,3c9.9-.66,19.76-1.91,29.63-2.94,1.72-.18,2.68,0,2.74,2.17.15,6.33.52,12.66.84,19,.38,7.47.91,14.93,1.15,22.4.16,4.67-.22,9.36-.13,14,.15,8.26-2.33,16.1-3.58,24.14-1.62,10.36-2.8,20.82-3.58,31.28-.67,9-.61,18.13-.71,27.2-.09,9.48,0,19,.05,28.46,0,4.44.12,8.89.16,13.34a7.37,7.37,0,0,1-.23,1.87c-1.33,4.89-3.39,6.13-9,5.68a224.6,224.6,0,0,0-33.12-.49c-10.65.74-21.34.79-32.42,1.16l3.76,16.78c11-2.22,21.87-2,32.7-2.14,16-.19,31.9-.28,47.85-.47,8.16-.1,16.31-.37,24.47-.45a32.92,32.92,0,0,1,5,.7c-.88,5.08-2.82,6.22-8.61,6.14-9.3-.13-18.59,0-27.89,0-10.2,0-20.4.1-30.6.25-11.57.18-23.13.49-34.7.72-2.06,0-4.12,0-6.12,0,1,5.5,2.11,11,3,16.48,1,6.71,1.82,13.46,2.78,20.18.27,1.88.77,3.72,1.14,5.58.59,2.94-.69,4.51-3.64,4.53-18.66.12-37.32.36-56,.35-12.31,0-24.62-.3-36.93-.62-7.69-.2-15.37-.72-23.06-1-4.73-.2-5.34-1.4-4.37-6.19,1.94-9.48,6.24-18.11,9.42-27.13,1.28-3.63,2.26-7.37,3.5-11.45-6.28,2.85-12.41,1.54-18.4,1.63-14.47.23-28.95.21-43.43.14-11-.06-22.1-.34-33.15-.51-3.26,0-6.54.14-9.76-.19-1.29-.14-2.47-1.39-3.7-2.13,1.12-.9,2.18-2.48,3.37-2.59,5.4-.46,10.84-.61,16.27-.7q16.17-.26,32.35-.32,26.08-.11,52.19-.07C106,207.79,107.76,208.11,109.79,208.31ZM271.71,180c0-3.79.05-7.35,0-10.91-.13-8.57-.36-17.14-.46-25.71-.09-7.55-.25-15.12,0-22.67.25-7.81.8-15.62,1.51-23.41.48-5.22,1.45-10.39,2.25-15.58.87-5.61,2.24-11.18,2.59-16.82.47-7.49.19-15,.2-22.53,0-9.18,0-18.36,0-27.54V9.41c-12.37.81-24.44,1.73-36.52,2.34-11,.56-22,.78-33.06,1.17q-13.94.49-27.86,1.06c-11.93.5-23.85,1.35-35.78,1.48-15.92.19-31.86,0-47.78-.33C84.67,14.9,72.58,14,60.49,13.87,54.2,13.78,47.9,14.6,41.56,15c.39,2.33.87,4.18,1,6,.31,5.29.55,10.58.67,15.87.27,12.22.4,24.43.69,36.65.11,4.75.29,9.52.76,14.25.86,8.62,2.13,17.2,2.88,25.83.49,5.59.47,11.23.52,16.84,0,6.48,0,13-.14,19.45-.08,5-.36,10.08-.41,15.12-.08,6.39,0,12.79,0,18.78,7.68,0,15.85-.06,24,0,7.29.07,14.58.26,21.87.45,7,.19,14.08.4,21.13.68,2.51.11,4-.6,4.36-3.39a40.44,40.44,0,0,1,1.85-6.52c4-12.52,7.89-25,11.92-37.53a84.27,84.27,0,0,1,3.94-10.38c.66-1.38,2.25-3,3.62-3.23a44.45,44.45,0,0,1,9.65-.06c2.22.16,4.39,1.1,6.62,1.26,9.79.7,19.6,1.27,29.4,1.83,3.47.19,5,1.7,5.22,5.12a35.78,35.78,0,0,0,1,7.76c2.2,7.45,4.75,14.78,7,22.21,1.75,5.69,3.36,11.44,4.89,17.19.45,1.69,1.26,2,2.87,1.92,9.81-.4,19.62-.66,29.43-1,3.89-.14,7.77-.5,11.65-.52,4.55,0,9.11.26,13.66.35C264.85,180.05,268.07,180,271.71,180Zm-58.36,72.79a22.12,22.12,0,0,0,0-2.44c-1.36-8.85-2.39-17.77-4.21-26.53-1.45-7-3.88-13.71-5.83-20.57q-4.17-14.67-8.28-29.35c-1.36-4.86-2.56-9.77-4-14.61s-3.31-9.74-4.52-14.71c-.84-3.47-.86-7.13-1.28-11-1.33,0-2.78.1-4.2,0-11.17-.95-22.33-1.95-33.49-2.91-2.15-.18-4.31-.14-6.46-.35-1.9-.18-2.36.86-2.81,2.45-4.29,15-8.68,29.88-13,44.81-.63,2.17-2.06,4.64-1.51,6.48.65,2.14-.07,3.53-.71,5.11-2,4.89-4.24,9.66-6,14.61-4,10.88-7.65,21.85-11.55,32.75-1.71,4.78-4.24,9.31-4.52,15.32Z" fill="#fff"/>
          <path d="M120.42,104.74c2.18,1.91,4.34,3.71,6.39,5.63a3,3,0,0,1,1,2.14c-.13.71-1.16,1.83-1.67,1.76-1.52-.21-3.39-.49-4.38-1.49-7.59-7.62-13.65-16.44-19.28-25.56a11.66,11.66,0,0,1-.76-2c2-1.64,3.23-.44,4.35,1,3.36,4.15,6.72,8.31,10,12.54,1.06,1.39,2,1.73,3.8,1.29,4-1,8.17-1.44,12.28-2.08,2.76-.42,5.54-.78,7.83-1.09,1.05-4.26,1.55-8.29,3-11.91,2.57-6.24,6.92-11,13.58-13.22,4.72-1.55,9.42-3.19,14.21-4.48,9.52-2.58,11.46,4.73,9.5,11.2-1.33,4.37-5,7.09-8.56,9.53-5.14,3.48-10.51,6.61-16.06,10.07,2.33.7,4.62,1.57,7,2.09,8.91,1.94,17.37-1,26-2.53a41.65,41.65,0,0,0,16-6.49,8.67,8.67,0,0,0,2.06-2c3-4,5.81-8.09,8.82-12,.51-.67,1.64-.88,2.48-1.29.21,1.11.93,2.49.52,3.28-1.92,3.69-4.84,7-6.14,10.84-2.19,6.47-6.95,10.78-11.23,15.55-.74.82-2,1.14-3.07,1.69l-1.32-3.81a3,3,0,0,0-1.17,0c-7.7,1.86-15.33,4.18-23.12,5.55-9.65,1.69-18.63-.93-26.91-6a4,4,0,0,0-2.2-.71C135.94,102.87,128.53,103.77,120.42,104.74Zm29.76-11.56c8.26-3.59,15.53-7.56,21.76-13.17,1.09-1,1.41-3,1.78-4.54.34-1.44-.33-2.33-2-1.75-4.39,1.55-8.82,3-13.14,4.72C152.16,81,151,86.7,150.18,93.18Z" fill="#fff"/>
          <path d="M87,61.65a56.56,56.56,0,0,1,3.36,5.67c.37.83-.07,2-.14,3.06-.94-.31-2.27-.33-2.76-1-1.79-2.38-3.1-5.13-5-7.44C77.25,55.42,71.76,49,66.39,42.57c-.92-1.11-1.7-2.33-2.55-3.5l.78-1c1.07.48,2.42.71,3.18,1.5,4.84,5,9.56,10.14,14.3,15.25.67.73,1.23,1.55,1.83,2.33,2.78-2.54,5.27-5.33,8.24-7.42,13.08-9.21,27.42-14.89,43.65-15.18,6.87-.13,13.73-.73,20.6-.94a49.36,49.36,0,0,1,21.42,3.87c4.2,1.81,8.69,2.95,13,4.59a35.69,35.69,0,0,1,8,3.84c1,.69,1.42,3.12,1.06,4.48-.44,1.67-1.79,3.71-4.16,2.73-2.66-1.1-5.1-2.71-7.7-3.94-12.63-6-25.5-10.63-39.92-8.76-6.26.81-12.62.8-18.94,1.22-8.75.58-16.59,4.19-24.52,7.46C97.82,51.92,92.3,56.52,87,61.65Z" fill="#fff"/>
          <path d="M235.36,53.62a31.9,31.9,0,0,1,2.06-4.26,145.33,145.33,0,0,1,22.81-25c.64-.57,1.95-.39,2.95-.56-.21,1.1-.06,2.53-.7,3.26-6,6.89-12.14,13.62-18.13,20.5-1.82,2.09-3.18,4.59-4.95,6.74a4.31,4.31,0,0,1-2.72,1.15C236.34,55.51,235.87,54.36,235.36,53.62Z" fill="#fff"/>
          <path d="M160.15,182.59c-3.5-.82-7.07-1.44-10.49-2.52-5.56-1.76-8.35-5.83-8-11.64.28-4.74,1.14-9.48,4.43-13.12,3.79-4.17,8.78-4.5,14-3.47a39.3,39.3,0,0,0,6.36.91,8.29,8.29,0,0,1,6.72,3.43c4.18,5.44,5.17,11.4,2,17.51C172.12,179.56,167,182.39,160.15,182.59Zm-1.75-25.35c-7.58,0-10.25,2.74-10.28,9.26a3.17,3.17,0,0,0,.06,1.35c.91,1.68,1.51,4,3,4.84a20.54,20.54,0,0,0,12.67,3.13c4.46-.44,7.18-2.86,7.75-6.31.61-3.74-2.95-10.5-6.17-11.08C162.72,158,160,157.52,158.4,157.24Z" fill="#fff"/>
          <path d="M185.46,237.05c-7.66-.18-10.13-6.27-6.5-13.9,1.35-2.83,3.26-5.57,7.4-4.22.89.29,2.18-.83,3.2-.7,2.56.31,5.7,4.44,5.2,7.06a34.62,34.62,0,0,1-2.51,7.88C190.89,236.13,188.74,237.12,185.46,237.05Zm-2.41-9.68a10.89,10.89,0,0,0,2,2.84c.58.44,2.39.36,2.64-.07a10.08,10.08,0,0,0,1.05-4c.05-.61-.58-1.28-.92-1.92-.92-1.73-2.67-1.88-3.7-.2A17.13,17.13,0,0,0,183.05,227.37Z" fill="#fff"/>
          <path d="M187.64,194.24c-.28,8.45-8,13.54-15.57,10.1a5.51,5.51,0,0,1-2.59-2.5c-1.63-3.71,0-10.45,3.36-12.49a16.9,16.9,0,0,1,8-2.28c1.62,0,3.55,1.56,4.86,2.89C186.7,191,187,192.79,187.64,194.24Zm-12.95,2.35c0,2.43,1.06,3.34,4.06,3.36a3.73,3.73,0,0,0,3.52-3.7c-.07-1.91-.57-3.84-2.77-4.06C176.45,191.89,174.74,193.64,174.69,196.59Z" fill="#fff"/>
          <path d="M131.37,235.43c-2.28-.59-4.48-1.07-6.62-1.75-3.08-1-4.08-2.68-3.13-5.82a30.49,30.49,0,0,1,2.83-6.4c1.72-2.94,4.34-4.27,7.83-3.42.52.13,1.06.19,1.6.29,5.39.91,7.06,2.16,7.62,5.75a9.3,9.3,0,0,1-5.45,10A26.44,26.44,0,0,1,131.37,235.43Zm.36-5.49c3.11.12,5.32-1.37,5.5-3.25.21-2.38-1.6-4.12-4.49-4.3a11.13,11.13,0,0,0-2.16.06c-1.91.26-4.38,2.85-3.94,4.73.22,1,1.92,1.7,3.07,2.31A5.79,5.79,0,0,0,131.73,229.94Z" fill="#fff"/>
          <path d="M168.8,225c.07,6.55-6.52,12.14-13,11a4.67,4.67,0,0,1-4.17-3.66c-1.29-5.3,2.33-14.37,10.74-13.91A6.36,6.36,0,0,1,168.8,225Zm-10.9,5.62c3.52,0,6.29-2.07,6.33-4,0-1.72-1.9-3.18-4.1-3.1-1.78.06-3.7,2.44-3.51,4.77C156.69,229.18,157.58,230.06,157.9,230.6Z" fill="#fff"/>
          <path d="M141.1,204.41a51.86,51.86,0,0,1-6-1.63c-3.11-1.24-4.14-2.76-3.28-5.89a22.69,22.69,0,0,1,3.62-6.5c.41-.59,1.75-.59,2.68-.74a16.66,16.66,0,0,0,2.14-.08c5.2-1.7,9.81,2.62,8.77,8.26C148.31,202,145.62,204.11,141.1,204.41Zm-4.26-7.35c3.11,2.15,6.77,2.89,7.66,1.33,1.33-2.31-.2-4-1.84-5.75C140.8,194.26,137.14,193.1,136.84,197.06Z" fill="#fff"/>
        </g>
      </g>
    </g>
  </g>
</svg>
