<svg xmlns="http://www.w3.org/2000/svg" viewBox="0 0 311.41 336.97">
  <g id="Layer_2" data-name="Layer 2">
    <g id="Layer_1-2" data-name="Layer 1">
      <g id="mzUR5Y">
        <path d="M278,287.35c5.24,0,10,.07,14.74,0q8-.13,16-.52c1.95-.09,2.7.83,2.65,2.55-.1,4.06-.37,8.11-.45,12.17-.09,4.23-.15,8.47,0,12.7.06,2-1,3-2.46,4.09-1.63,1.16-2.51-.08-3.59-.74-3.89-2.37-3.27-6.26-3.07-9.86.26-4.67.85-9.32,1.35-14.53-3.32.17-6.42.36-9.52.49-8.75.36-17.52.58-26.26,1.07-9.48.53-18.93,1.4-28.4,1.93s-19.16.92-28.75,1.23c-11.86.38-23.71.64-35.57.9-6.6.15-13.21,0-19.81.31-9.21.42-18.4,1.21-27.61,1.69-6.15.32-12.32.26-18.46.59-16.89.91-33.78,1.77-50.65,3-14.89,1.07-29.75,2.61-44.63,3.87-2.33.2-4.7,0-7.18,0a11.71,11.71,0,0,0-.43,1.9c-.33,8-.59,15.95-1,23.92A9.68,9.68,0,0,1,3.75,337c-1.07-.77-2.84-1.36-3.08-2.34A28.44,28.44,0,0,1,0,327.08c.18-6.41.32-12.84,1-19.22.45-4.53,2.32-5.68,6.94-5.63,5,0,9.93,0,14.38,0,0-2.82-.07-5,0-7.22.24-7.33.57-14.66.8-22a22.66,22.66,0,0,1,4-11.7,6.13,6.13,0,0,1,6-2.78c4.95.3,9.93.08,15.26.08.37-8.09.72-15.56,1-23,.08-1.81,0-3.62.12-5.43.17-3.38,2.17-5.21,5.6-5.21H80.5c-1.08-2.44-1.81-4.12-2.64-6a29.79,29.79,0,0,1-4.71-.07c-.84-.13-1.56-1-2.34-1.52a27.59,27.59,0,0,1,2.12-2.2,2.47,2.47,0,0,1,1.55-.46c2.87.15,3.31-1.22,3.07-3.85-.41-4.6-.23-9.25-.46-13.87-.45-9.32-.91-18.64-1.54-27.95-.57-8.5-1.42-17-2-25.48-.68-9.13-1.24-18.26-1.86-27.39-.06-.81-.2-1.61-.3-2.38-1.64,0-3.15,0-4.66,0a6.54,6.54,0,0,1-2.63-.47c-.73-.37-1.84-1.36-1.72-1.78a3.14,3.14,0,0,1,1.89-2,65.23,65.23,0,0,1,6.78-.9v-8.33c-2.86,0-5.55.06-8.23,0a46.8,46.8,0,0,1-7-.53c-4.74-.89-6-4-2.77-7.51,2.79-3.07,6.14-5.61,9.23-8.41q19.85-18,39.68-36c17.18-15.62,34.39-31.19,53.34-44.69a27.52,27.52,0,0,1,2.47-1.68c4.12-2.29,6-2.06,8.37,2A85.41,85.41,0,0,0,188,27.83c10.31,8,18.8,17.81,27.37,27.6,6.39,7.31,13.74,13.78,20.74,20.55,3.75,3.63,7.55,7.24,11.54,10.59,3.66,3.06,7.61,5.77,11.44,8.62,3.14,2.33,4.22,6,2.11,8.16a5.88,5.88,0,0,1-3.7,1.73c-9.14.14-18.28.08-27.61.08v5.89a13.8,13.8,0,0,1,3.37.06c.93.25,2.18.79,2.51,1.55.74,1.68-.5,2.76-2,3.21a21.22,21.22,0,0,1-4,.38c0,2.07,0,4.2,0,6.32-.34,17.93-.74,35.85-1,53.77-.13,7.2-.1,14.42,0,21.62,0,1,.95,1.9,1.16,2.92s.63,2.88.09,3.33c-1.66,1.38-1.67,3.11-1.73,4.87-.09,2.43,0,4.87,0,7.46,4.58,0,9.08,0,13.58,0,3.71,0,7.42,0,11.13-.2a2.6,2.6,0,0,1,3,2.42c1.22,6.21,2.37,12.43,3.64,18.63.95,4.66,2,9.29,3.09,14.06,4.31-.28,8.35-.44,12.36-.83,2-.19,2.86.51,3,2.39.3,4.67.49,9.34.91,14,.39,4.48.83,9,1.61,13.4C280.94,283.2,280.86,285.53,278,287.35Zm-7.75-30.55c-4.07.37-7.68.58-11.25,1.06a249.18,249.18,0,0,1-39.74,2.26c-12.38-.32-24.76-1-37.14-1.25q-21.63-.36-43.25-.12-19.56.19-39.12,1.05c-11.12.51-22.22,1.48-33.32,2.31-10.64.8-21.27,1.81-31.92,2.49-4.52.28-4.74.15-5.78,4.71a16.22,16.22,0,0,0-.39,2.95c-.19,5.16-.18,10.34-.56,15.48-.32,4.46-1.08,8.89-1.66,13.46.74,0,1.38.06,2,0,12.12-1.3,24.21-2.75,36.34-3.87,9.17-.84,18.37-1.43,27.57-1.84,10.11-.46,20.25-.46,30.36-.89,13-.54,26-1.48,39-1.93,16.79-.57,33.6-.77,50.39-1.26,8.23-.24,16.46-.72,24.68-1.2,10-.59,20-1.35,30-1.93,3.22-.18,6.46,0,9.69,0l.16-.93c-3.39-1-4.68-3.7-5.28-6.66a46.41,46.41,0,0,1-.8-8.25C270.2,267.39,270.28,262.35,270.28,256.8ZM159.34,7.15c-.8.53-1.44.89-2,1.33C148.75,15.26,140,21.79,131.65,28.9c-11.11,9.52-21.88,19.45-32.73,29.27-8,7.28-15.91,14.76-24,22-4.58,4.05-9.53,7.7-14.85,12,5.09.37,9.52,1,14,1,6.49,0,13-.4,19.46-.67,7.29-.3,14.58-.8,21.88-1,17.64-.39,35.16,1.73,52.72,2.93,12.06.82,24.14,1.38,36.2,2.12,9.61.59,19.21,1.4,28.82,1.86,5.53.27,11.08,0,16.89,0A15.51,15.51,0,0,0,248.47,97a124.46,124.46,0,0,1-19-16.16c-6.38-6.63-13.57-12.53-19.53-19.5a264.88,264.88,0,0,0-30.72-30.95c-5-4.21-9.29-9.31-13.63-14.26C163.26,13.49,161.51,10.32,159.34,7.15ZM53.78,257.68c5.41-.76,10.47-1.76,15.58-2.11,11.8-.81,23.6-1.51,35.42-1.88,18-.55,35.94-.87,53.92-1.1,9.86-.13,19.74,0,29.6.23,15.17.38,30.34,1.17,45.52,1.37,6.83.09,13.68-.85,20.64-1.33-.84-4.48-1.7-8.52-2.33-12.59-.85-5.57-1.49-11.17-2.33-16.74-.1-.67-.94-1.8-1.36-1.77-8,.64-16.3-1.89-23.47,1.62-1.81-.46-3.2-1.13-4.59-1.11-4.43,0-8.86.27-13.29.57-5.5.37-11,1-16.48,1.29-7.27.34-14.55.31-21.82.59-8.58.34-17.16.84-25.74,1.28-9.86.49-19.72.83-29.56,1.51-13.91,1-27.8,2.28-41.72,3.22-5.29.35-10.63.05-16,.05C55.12,239.89,54.47,248.52,53.78,257.68Zm134.15-49.42a9.58,9.58,0,0,1-2-.63c-.88-.5-1.68-1.15-2.52-1.74.76-.82,1.41-2.21,2.29-2.36,2.49-.43,2.61-1.95,2.62-3.92,0-10,.17-19.93.24-29.9q.15-24.21.24-48.42c0-1.9.58-4.33-.36-5.54-.83-1-3.42-.74-5.23-1-.09,0-.2,0-.26,0l-3.21-2.35c1.05-.72,2-1.82,3.17-2.09a34.06,34.06,0,0,1,5.75-.41V103c-13.33-1-26.58-2-39.83-3s-26.48-1.79-39.79-.77v6.68c1.63,1,3.67,1.49,3.94,2.49.83,3.08-2.4,2.59-3.69,3.37-1.87,31.65,3.33,62.5,6.88,93.71,2.39-.28,4.71-.54,7-.82,5.63-.69,5.45-.69,5.39-6.42-.16-14.5-.59-29,0-43.49.34-8.88,3.89-16.92,11.31-22.6a15.17,15.17,0,0,1,20.43,1.65,39.94,39.94,0,0,1,9.5,19.86,205.11,205.11,0,0,1,2.39,21c.78,9.92,1.2,19.87,1.9,29.8.34,4.84,1,9.66,1.46,14.37h12.4Zm-18.6,11.13c-1-17.88-1.88-35.34-2.85-52.81-.52-9.39-2.87-18.22-8.13-26.16-3.92-5.93-10.6-7.08-16.11-2.55a22.68,22.68,0,0,0-8.15,15.77c-.83,9-.81,18.07-.87,27.11-.07,10,.2,20.06.3,30.08,0,3.3,0,6.6,0,10.14ZM76.61,113.23c1.47,33.44,7,66.15,6.06,99.55,1.3-.25,2-.36,2.67-.52,7.32-1.71,14.61-3.57,22-5.06,2.39-.49,2.91-1.47,2.66-3.63-1-8.55-1.66-17.15-2.88-25.67A325.46,325.46,0,0,1,103.94,124c.1-4,0-8.08,0-12.51Zm117.74,1.63v87.39l27.89-1.8c.7-28.24,1.39-56.28,2.09-84.61ZM82.27,224.43l46.42-3.54V209.16l-12.38,1.63a57.27,57.27,0,0,0,1.47,5.69c.78,2.15-.4,3.43-1.93,4.2-1.95,1-2.47-1-3-2.19a22.3,22.3,0,0,1-1.37-4.38c-.42-1.62-1.07-2.51-3-1.93-2.16.64-4.43.9-6.63,1.4-6,1.36-11.94,2.76-17.31,4ZM222,206.17a3,3,0,0,0-.89-.26c-8.58.55-17.17,1.1-25.74,1.74-.52,0-1.39.78-1.4,1.23-.13,3.12-.07,6.25-.07,9.53l28.1-1.65ZM104.12,106.7V99.25c-2.92.16-5.69.35-8.47.45q-8.52.31-17.05.55c-1.53,0-2.69.56-2.79,2.21-.11,1.92,0,3.86,0,6Zm89.69,3.06c9.88.39,19.45.79,29,1.08.53,0,1.34-.88,1.58-1.51s-.1-1.63.05-2.41c.44-2.23-.52-2.77-2.61-2.85-5.5-.21-11-.76-16.49-1-3.84-.16-7.69,0-11.55,0Z" fill="#fff"/>
      </g>
    </g>
  </g>
</svg>
